<svg xmlns="http://www.w3.org/2000/svg" shape-rendering="geometricPrecision" text-rendering="geometricPrecision" image-rendering="optimizeQuality" fill-rule="evenodd" clip-rule="evenodd" viewBox="0 0 512 510.676"><path d="M223.695 51.658l54.506 68.533c4.998 6.279 3.969 15.562-2.34 20.516l-50.283 39.482-73.929-90.362 51.528-40.508c6.317-4.964 15.519-3.948 20.518 2.339zm216.124 122.419l66.164-13.289c1.414-.292 2.665-.051 3.646.487a4.624 4.624 0 011.813 1.798c.35.632.546 1.343.558 2.075l-.004.445c-.086 1.035-.535 2.055-1.392 2.88l-28.469 27.298 23.901 24.193c2.291 2.232 3.575 4.166 3.5 6.242-.088 2.461-1.715 4.162-5.263 5.378l-1.315.411c-24.6 5.941-51.865 10.248-76.927 15.173-1.897.393-3.636.24-4.95-.322-.926-.395-1.683-.99-2.222-1.756l-.196-.286c-.591-.979-.804-2.122-.577-3.357.237-1.275.979-2.63 2.334-3.936l27.143-26.178-.904-.86c-5.759-5.472-16.066-15.268-21.446-21.815-2.526-3.076-3.677-5.512-3.194-7.738.572-2.634 2.81-4.055 6.974-4.676l10.826-2.167zM346.381.125c4.917-1.017 7.985 4.429 4.627 7.679l-28.475 27.304 23.901 24.193c4.683 4.563 5.28 9.206-1.762 11.62l-1.316.411c-24.6 5.941-51.865 10.248-76.927 15.172-6.876 1.426-10.923-4.536-5.611-9.656l27.143-26.178-.905-.86c-5.758-5.472-16.064-15.268-21.445-21.815-4.887-5.941-4.82-10.685 3.781-12.414L346.381.125zm19.449 426.447c14.486-16.466 20.484-22.796 35.455-42.973l-88.103-74.254c-40.947 52.311-101.642 130.726-172.323 60.388-70.583-70.243 7.56-132.682 62.565-172.615l-72.968-89.385c-20.269 14.849-28.911 21.86-45.472 36.248-236.321 205.307 73.622 518.151 280.846 282.591zm91.725-139.583l-67.28-54.195c-6.168-4.971-15.302-4-20.255 2.183l-40.581 50.663 88.097 74.26 42.2-52.656c4.957-6.183 3.986-15.284-2.181-20.255z"/></svg>